<?xml version="1.0" encoding="UTF-8" standalone="no"?><svg xmlns:svg="http://www.w3.org/2000/svg" xmlns="http://www.w3.org/2000/svg" version="1.1" style="overflow:visible" viewBox="-250 -250 500 500" height="2000px" width="2000px"><rect fill-opacity="0" fill="rgb(0,0,0)" height="500" width="500" y="-250" x="-250" /><svg version="1.1" y="-247" x="-172" viewBox="-250 -250 500 500" height="500px" width="500px" style="overflow:visible"><g transform="rotate(0,0,0)" stroke-linejoin="round" fill="#fff"><path stroke-linecap="butt" stroke-linejoin="round" stroke-width="23" stroke-opacity="1" stroke="rgb(4,4,4)" fill="rgb(255,255,255)" d="m-46.105-177h92.2092l-7.62517 229.172h-76.9588z" /><path stroke-linecap="butt" stroke-linejoin="round" stroke-width="23" stroke-opacity="1" stroke="rgb(4,4,4)" fill="rgb(255,255,255)" d="m42.958 134.293999a42.9581 42.7063 0 0 1-42.9581 42.7063a42.9581 42.7063 0 0 1-42.9581-42.7063a42.9581 42.7063 0 0 1 42.9581-42.7063a42.9581 42.7063 0 0 1 42.9581 42.7063z" /></g></svg><svg version="1.1" y="-247" x="-316" viewBox="-250 -250 500 500" height="500px" width="500px" style="overflow:visible"><g transform="rotate(0,0,0)" stroke-linejoin="round" fill="#fff"><path stroke-linecap="butt" stroke-linejoin="round" stroke-width="23" stroke-opacity="1" stroke="rgb(4,4,4)" fill="rgb(255,255,255)" d="m-46.105-177h92.2092l-7.62517 229.172h-76.9588z" /><path stroke-linecap="butt" stroke-linejoin="round" stroke-width="23" stroke-opacity="1" stroke="rgb(4,4,4)" fill="rgb(255,255,255)" d="m42.958 134.293999a42.9581 42.7063 0 0 1-42.9581 42.7063a42.9581 42.7063 0 0 1-42.9581-42.7063a42.9581 42.7063 0 0 1 42.9581-42.7063a42.9581 42.7063 0 0 1 42.9581 42.7063z" /></g></svg></svg>